<?xml version="1.0" encoding="utf-8"?>
<!-- Generator: Adobe Illustrator 22.1.0, SVG Export Plug-In . SVG Version: 6.00 Build 0)  -->
<svg version="1.1" id="Camada_1" xmlns="http://www.w3.org/2000/svg" xmlns:xlink="http://www.w3.org/1999/xlink" x="0px" y="0px"
	 viewBox="0 0 662 835" style="enable-background:new 0 0 662 835;" xml:space="preserve">
<style type="text/css">
	.st0{fill:url(#SVGID_1_);}
</style>
<linearGradient id="SVGID_1_" gradientUnits="userSpaceOnUse" x1="29.3144" y1="299.8906" x2="511.5234" y2="813.0624">
	<stop  offset="0" style="stop-color:#B9EA46"/>
	<stop  offset="1" style="stop-color:#6DD0D7"/>
</linearGradient>
<path class="st0" d="M0,0c0,0,36.2,14.7,89,84c51,67,75,87,128,89c-14.7-0.1,74-9,136,93c7.2,11.8,59.7,124.3,110,133
	c110,19,144,50,176,116c37.1,76.5,36,210-56,275c-101.4,71.7-208,37-208,37s-87-19-138-79c0,0-50-92-236-27"/>
</svg>
